<svg width="11" height="15" viewBox="0 0 11 15" fill="none" xmlns="http://www.w3.org/2000/svg">
<g clip-path="url(#clip0_1_152)">
<mask id="mask0_1_152" style="mask-type:alpha" maskUnits="userSpaceOnUse" x="0" y="-2" width="11" height="19">
<path d="M10.3643 -1.25H0.864258V16.25H10.3643V-1.25Z" fill="white"/>
</mask>
<g mask="url(#mask0_1_152)">
<path fill-rule="evenodd" clip-rule="evenodd" d="M0.864258 -1.25V16.25H10.3643V-1.25H0.864258Z" fill="#2E42A5"/>
<path d="M-0.193359 14.9997L1.89714 17.1711L10.4119 1.1109L11.5146 -2.11602L9.27912 -2.8418L5.80612 4.07906L3.01075 8.74211L-0.193359 14.9997Z" fill="white"/>
<path d="M0.0925293 16.521L1.15754 17.7811L11.1183 -2.41602H9.62294L0.0925293 16.521Z" fill="#F50100"/>
<path d="M11.4218 14.9997L9.33129 17.1711L0.816552 1.1109L-0.286133 -2.11602L1.94935 -2.8418L5.42231 4.07906L8.21769 8.74211L11.4218 14.9997Z" fill="white"/>
<path d="M11.3506 16.0916L10.2856 17.3518L6.04422 8.70435L4.78672 7.73819L-0.39209 -2.10498H1.10331L6.27923 7.50455L7.65406 8.66308L11.3506 16.0916Z" fill="#F50100"/>
<mask id="mask1_1_152" style="mask-type:alpha" maskUnits="userSpaceOnUse" x="0" y="-3" width="11" height="21">
<path fill-rule="evenodd" clip-rule="evenodd" d="M6.73613 -2.7085H4.4931V4.58317H0.279053V10.4165H4.4931V17.7082H6.73613V10.4165H10.9665V4.58317H6.73613V-2.7085Z" fill="white"/>
</mask>
<g mask="url(#mask1_1_152)">
<path fill-rule="evenodd" clip-rule="evenodd" d="M6.73613 -2.7085H4.4931V4.58317H0.279053V10.4165H4.4931V17.7082H6.73613V10.4165H10.9665V4.58317H6.73613V-2.7085Z" fill="#F50100"/>
<path d="M4.4931 -2.70866V-4.16699H3.89935V-2.70866H4.4931ZM6.73613 -2.70866H7.32988V-4.16699H6.73613V-2.70866ZM4.4931 4.58301V6.04134H5.08688V4.58301H4.4931ZM0.279054 4.58301V3.12467H-0.314697V4.58301H0.279054ZM0.279054 10.4163H-0.314697V11.8747H0.279054V10.4163ZM4.4931 10.4163H5.08688V8.95801H4.4931V10.4163ZM4.4931 17.708H3.89935V19.1663H4.4931V17.708ZM6.73613 17.708V19.1663H7.32988V17.708H6.73613ZM6.73613 10.4163V8.95801H6.14238V10.4163H6.73613ZM10.9665 10.4163V11.8747H11.5603V10.4163H10.9665ZM10.9665 4.58301H11.5603V3.12467H10.9665V4.58301ZM6.73613 4.58301H6.14238V6.04134H6.73613V4.58301ZM4.4931 -1.25033H6.73613V-4.16699H4.4931V-1.25033ZM5.08688 4.58301V-2.70866H3.89935V4.58301H5.08688ZM0.279054 6.04134H4.4931V3.12467H0.279054V6.04134ZM0.872805 10.4163V4.58301H-0.314697V10.4163H0.872805ZM4.4931 8.95801H0.279054V11.8747H4.4931V8.95801ZM5.08688 17.708V10.4163H3.89935V17.708H5.08688ZM6.73613 16.2497H4.4931V19.1663H6.73613V16.2497ZM6.14238 10.4163V17.708H7.32988V10.4163H6.14238ZM10.9665 8.95801H6.73613V11.8747H10.9665V8.95801ZM10.3728 4.58301V10.4163H11.5603V4.58301H10.3728ZM6.73613 6.04134H10.9665V3.12467H6.73613V6.04134ZM6.14238 -2.70866V4.58301H7.32988V-2.70866H6.14238Z" fill="white"/>
</g>
</g>
</g>
<defs>
<clipPath id="clip0_1_152">
<rect width="9.5" height="15" fill="white" transform="translate(0.864258)"/>
</clipPath>
</defs>
</svg>
